<svg width="464" height="350" fill="none" xmlns="http://www.w3.org/2000/svg"><path d="M96.376 268.333h281.871v0c0 11.28-9.144 20.424-20.424 20.424H116.801c-11.28 0-20.425-9.144-20.425-20.424v0Z" fill="#fff" stroke="#034EA6" stroke-width="4.5" stroke-miterlimit="10" stroke-linecap="round" stroke-linejoin="round"/><path d="M206.839 268.214h60.949c0 5.706-4.626 10.331-10.331 10.331h-40.286c-5.706 0-10.332-4.625-10.332-10.331Z" fill="#034EA6"/><path fill-rule="evenodd" clip-rule="evenodd" d="M124.106 126.05a7.5 7.5 0 0 0-7.501 7.5v134.771h241.414V133.55a7.5 7.5 0 0 0-7.5-7.5H124.106Zm220.889 12.662H129.631v129.609h215.364V138.712Z" fill="#fff"/><path d="M116.605 268.321h-2.25a2.25 2.25 0 0 0 2.25 2.251v-2.251Zm241.414 0v2.251a2.25 2.25 0 0 0 2.25-2.251h-2.25ZM129.631 138.712v-2.25a2.25 2.25 0 0 0-2.25 2.25h2.25Zm215.364 0h2.25a2.25 2.25 0 0 0-2.25-2.25v2.25ZM129.631 268.321h-2.25a2.25 2.25 0 0 0 2.25 2.25v-2.25Zm215.364 0v2.25a2.25 2.25 0 0 0 2.25-2.25h-2.25ZM118.855 133.55a5.25 5.25 0 0 1 5.251-5.25v-4.5c-5.386 0-9.751 4.365-9.751 9.75h4.5Zm0 134.771V133.55h-4.5v134.771h4.5Zm239.164-2.25H116.605v4.501h241.414v-4.501Zm-2.25-132.521v134.771h4.5V133.55h-4.5Zm-5.25-5.25a5.25 5.25 0 0 1 5.25 5.25h4.5a9.75 9.75 0 0 0-9.75-9.75v4.5Zm-226.413 0h226.413v-4.5H124.106v4.5Zm5.525 12.662h215.364v-4.5H129.631v4.5Zm2.25 127.359V138.712h-4.5v129.609h4.5Zm213.114-2.25H129.631v4.5h215.364v-4.5Zm-2.25-127.359v129.609h4.5V138.712h-4.5Z" fill="#034EA6"/><path d="M164.865 168.054v44.869m23.849-46.528v48.109m23.849-47.28v47.281m23.849-48.941v48.94" stroke="#66CBFF" stroke-width="4.5" stroke-miterlimit="10" stroke-linecap="round" stroke-linejoin="round"/><path fill-rule="evenodd" clip-rule="evenodd" d="M283.423 107.266c0 .536-.008 1.071-.023 1.604 18.291.509 32.992 15.5 32.992 33.946 0 18.755-15.204 33.959-33.959 33.959H116.015c0-17.628 6.796-33.678 17.92-45.662a32.016 32.016 0 0 1-7.434-20.562c0-17.755 14.394-32.148 32.149-32.148 6.87 0 13.237 2.155 18.462 5.826 8.76-19.236 28.152-32.608 50.667-32.608 30.731 0 55.644 24.913 55.644 55.645Z" fill="#034EA6"/><path fill-rule="evenodd" clip-rule="evenodd" d="M283.423 96.886c0 .448-.005.894-.016 1.34 18.316.585 32.985 15.617 32.985 34.075 0 18.83-15.264 34.094-34.094 34.094H119.846c-18.829 0-34.094-15.264-34.094-34.094 0-18.829 15.265-34.093 34.094-34.093h4.826c2.654-15.081 15.82-26.54 31.662-26.54a32.008 32.008 0 0 1 19.103 6.289c7.745-21.413 28.256-36.716 52.342-36.716 30.731 0 55.644 24.913 55.644 55.645Z" fill="#fff"/><path d="m283.407 98.225-2.249-.053a2.25 2.25 0 0 0 2.177 2.303l.072-2.25Zm-158.735-.017v2.25a2.25 2.25 0 0 0 2.216-1.86l-2.216-.39Zm50.765-20.251-1.339 1.808a2.25 2.25 0 0 0 3.455-1.043l-2.116-.765Zm110.22 20.322c.011-.463.016-.928.016-1.393h-4.5c0 .43-.005.859-.015 1.286l4.499.107Zm32.985 34.022c0-19.677-15.636-35.7-35.163-36.324l-.144 4.498c17.106.546 30.807 14.587 30.807 31.826h4.5Zm-36.344 36.344c20.073 0 36.344-16.271 36.344-36.344h-4.5c0 17.587-14.257 31.844-31.844 31.844v4.5Zm-162.452 0h162.452v-4.5H119.846v4.5Zm-36.344-36.344c0 20.073 16.272 36.344 36.344 36.344v-4.5c-17.587 0-31.843-14.257-31.843-31.844h-4.5Zm36.344-36.343c-20.072 0-36.344 16.271-36.344 36.343h4.5c0-17.586 14.257-31.843 31.844-31.843v-4.5Zm4.826 0h-4.826v4.5h4.826v-4.5Zm2.216 2.64c2.468-14.024 14.715-24.68 29.446-24.68v-4.5c-16.954 0-31.038 12.262-33.878 28.4l4.432.78Zm29.446-24.68a29.756 29.756 0 0 1 17.764 5.847l2.677-3.617a34.254 34.254 0 0 0-20.441-6.73v4.5Zm71.445-34.927c-25.063 0-46.401 15.925-54.458 38.2l4.232 1.531c7.433-20.55 27.118-35.23 50.226-35.23v-4.5Zm57.894 57.895c0-31.975-25.92-57.895-57.894-57.895v4.5c29.488 0 53.394 23.906 53.394 53.395h4.5Z" fill="#034EA6"/><circle cx="120.393" cy="131.859" r="20.637" fill="#66CBFF"/><circle cx="227.06" cy="103.818" r="44.226" fill="#66CBFF"/><path d="M148.771 215.475h104.602m14.415 0h59.156m-178.173 26.159h37.277" stroke="#034EA6" stroke-width="4.5" stroke-miterlimit="10" stroke-linecap="round" stroke-linejoin="round"/><rect x="209.01" y="98.094" width="36.099" height="27.958" rx="7.501" fill="#fff"/><path d="M237.666 91.585v12.044h-20.367V91.585c0-5.624 4.559-10.183 10.184-10.183 5.624 0 10.183 4.559 10.183 10.183Z" stroke="#fff" stroke-width="4.5"/></svg>